<svg xmlns="http://www.w3.org/2000/svg" width="1024" height="1024" viewBox="0 0 1024 1024">
  <rect width="1024" height="1024" fill="#001F3F"/>
  <g transform="translate(92.5,76.5) scale(0.82)">

<svg id="Layer_1" xmlns="http://www.w3.org/2000/svg" version="1.1" viewBox="0 0 237.9 158.7">
  <rect width="237.9" height="158.7" fill="#001F3F"/>
  <!-- Generator: Adobe Illustrator 30.0.0, SVG Export Plug-In . SVG Version: 2.1.1 Build 123)  -->
  <defs>
    <style>
      .st0 {
        fill: #deff5b;
      }
    </style>
  </defs>
  <path class="st0" d="M56.5,33.3c25,0,45.1,19.3,46.2,44.3l.4,4.2c.4,9.8,2.3,19.7,6.1,29.2,4.2,9.5,9.8,17.8,17,25.4,7.2,7.2,15.9,12.9,25.4,17,9.1,3.8,19.7,6.1,31.1,6.1h55.3v-33h-55.3c-25,0-45.1-19.3-46.2-44.3l-.4-4.2c-.4-9.8-2.3-19.7-6.1-29.2-4.2-9.5-9.8-17.8-17-25.4-7.2-7.2-15.9-12.9-25.4-17C77.7,2.3,67.4,0,56.5,0H0v33.3h56.4Z"/>
  <path class="st0" d="M146.2,79.2l.4,4.2c0,3.8.8,7.6,2.3,11h89v-31.4h-93.2c.8,5.3,1.5,11,1.5,16.3Z"/>
  <path class="st0" d="M92.8,84.5l-.4-4.2c-.4-6.1-1.9-12.1-5.3-17H0v31.4h93.2c0-3.8-.4-7.2-.4-10.2Z"/>
  <path class="st0" d="M143.6,55.7c8.3-13.6,23.5-22,39.4-22h54.9V.4h-54.9c-10.6,0-21.2,2.3-31.1,6.4-9.5,3.8-17.8,9.5-25,16.7,5.3,6.4,9.5,13.6,12.9,21.2,1.5,3.4,2.6,7.2,3.8,11Z"/>
  <path class="st0" d="M96.2,104.2c-8.3,13.6-23.5,22-39.4,22H.1v32.6h56.7c11.4,0,21.6-1.9,31.1-6.1,9.5-3.8,17.8-9.5,25-16.7-5.3-6.4-9.5-13.6-12.9-21.2-1.5-3-3-6.8-3.8-10.6Z"/>

  </g>
</svg>
