<svg xmlns="http://www.w3.org/2000/svg" width="560" height="190" viewBox="0 0 560 190" role="img" aria-labelledby="title desc">
  <title id="title">DSX outline logo experiments preview</title>
  <desc id="desc">Preview sheet for DSX Connect and DSX Transfer outline mark experiments.</desc>
  <rect width="560" height="190" fill="#FFFFFF"/>
  <text x="28" y="38" font-family="Inter, Segoe UI, Arial, sans-serif" font-size="22" font-weight="650" fill="#001F3F">1g-style outline experiments</text>
  <text x="28" y="64" font-family="Inter, Segoe UI, Arial, sans-serif" font-size="13" fill="#334155">Palette: lime #DEFF5B, navy #001F3F.</text>

  <g transform="translate(28 92)">
    <rect width="230" height="70" rx="10" fill="#F8FAFC" stroke="#E2E8F0"/>
    <g transform="translate(18 15)" fill="#DEFF5B" stroke="#001F3F" stroke-width="2.4" stroke-linejoin="round" stroke-miterlimit="10">
      <path d="M8 20 28 8v24L8 20Z"/>
      <path d="M88 20 68 8v24l20-12Z"/>
      <path d="M48 6 62 20 48 34 34 20 48 6Z"/>
    </g>
    <text x="132" y="43" font-family="Inter, Segoe UI, Arial, sans-serif" font-size="18" font-weight="600" fill="#001F3F">Connect</text>
  </g>

  <g transform="translate(294 92)">
    <rect width="238" height="70" rx="10" fill="#F8FAFC" stroke="#E2E8F0"/>
    <g transform="translate(18 15)" fill="#DEFF5B" stroke="#001F3F" stroke-width="2.4" stroke-linejoin="round" stroke-miterlimit="10">
      <path d="M28 20 8 8v24l20-12Z"/>
      <path d="M88 20 68 8v24l20-12Z"/>
      <path d="M48 6 62 20 48 34 34 20 48 6Z"/>
    </g>
    <text x="132" y="43" font-family="Inter, Segoe UI, Arial, sans-serif" font-size="18" font-weight="600" fill="#001F3F">Transfer</text>
  </g>
</svg>
